<svg width="284" height="49" viewBox="0 0 284 49" fill="none" xmlns="http://www.w3.org/2000/svg">
<path d="M19.41 0L0 48.36H13.27H18.31L24.16 28.91H24.32H24.4L30.24 48.36H34.96H48.36L29.15 0H19.41Z" fill="#00B0D5"/>
<path d="M206.96 24.18C206.96 10.83 196.14 0 182.78 0H172V14.26H182.78C188.28 14.26 192.74 18.72 192.74 24.22C192.74 29.72 188.28 34.18 182.78 34.18H172V48.35H182.78C196.14 48.36 206.96 37.53 206.96 24.18Z" fill="#F8B20E"/>
<path d="M249 24.18C249 10.83 259.82 0 273.18 0H283.96V14.26H273.18C267.68 14.26 263.22 18.72 263.22 24.22C263.22 29.72 267.68 34.18 273.18 34.18H283.96V48.35H273.18C259.82 48.36 249 37.53 249 24.18Z" fill="#8E489B"/>
<path d="M126.14 16.66C126.14 11.63 124.18 6.66 120.19 3.46C116.01 0.13 110.39 0 105.29 0H90V12.53H106.88C110.07 12.53 112.86 13.85 112.86 17.43C112.86 21.16 110.26 22.63 106.78 22.63H93.3L111.74 48.36H124.35H127.25H130.12L116.51 31.29C122.66 29.18 126.14 23.29 126.14 16.66Z" fill="#E51875"/>
</svg>
