<svg width="134" height="75" viewBox="0 0 134 75" fill="none" xmlns="http://www.w3.org/2000/svg">
<path d="M4.89706 55C4.25706 55 3.79306 54.856 3.50506 54.568C3.24906 54.28 3.12106 53.848 3.12106 53.272V24.136C3.12106 23.528 3.24906 23.08 3.50506 22.792C3.79306 22.504 4.25706 22.36 4.89706 22.36H17.4251C21.1371 22.36 23.9531 23.224 25.8731 24.952C27.8251 26.68 28.8011 29.24 28.8011 32.632C28.8011 34.872 28.2731 36.792 27.2171 38.392C26.1611 39.96 24.6251 41.144 22.6091 41.944L27.9371 53.752C28.0331 53.944 28.0811 54.12 28.0811 54.28C28.0811 54.76 27.7931 55 27.2171 55H23.2811C22.8651 55 22.5611 54.952 22.3691 54.856C22.1771 54.728 22.0011 54.488 21.8411 54.136L16.9931 42.76H9.26506V53.272C9.26506 53.848 9.12106 54.28 8.83306 54.568C8.57706 54.856 8.11306 55 7.44106 55H4.89706ZM16.1771 38.152C18.4171 38.152 20.0651 37.72 21.1211 36.856C22.1771 35.992 22.7051 34.584 22.7051 32.632C22.7051 30.712 22.2251 29.304 21.2651 28.408C20.3051 27.512 18.8491 27.064 16.8971 27.064H9.26506V38.152H16.1771ZM31.1958 55C30.6518 55 30.3798 54.76 30.3798 54.28C30.3798 54.088 30.4278 53.88 30.5238 53.656L43.1958 23.608C43.3878 23.128 43.5958 22.808 43.8198 22.648C44.0438 22.456 44.3638 22.36 44.7798 22.36H47.4198C47.8678 22.36 48.1878 22.456 48.3798 22.648C48.6038 22.808 48.8118 23.128 49.0038 23.608L61.6758 53.656C61.7718 53.88 61.8198 54.088 61.8198 54.28C61.8198 54.76 61.5478 55 61.0038 55H56.8278C56.4118 55 56.1078 54.952 55.9158 54.856C55.7558 54.728 55.5958 54.488 55.4358 54.136L52.6998 47.416H39.4518L36.7638 54.136C36.6038 54.488 36.4278 54.728 36.2358 54.856C36.0758 54.952 35.7878 55 35.3718 55H31.1958ZM51.1638 42.952L46.0758 30.376L40.9878 42.952H51.1638Z" fill="#7F7F7F"/>
<rect x="66.5" y="5.5" width="65" height="65" rx="7.5" stroke="white" stroke-width="5"/>
<mask id="path-3-outside-1_15_10" maskUnits="userSpaceOnUse" x="78" y="21" width="43" height="35" fill="black">
<rect fill="white" x="78" y="21" width="43" height="35"/>
<path d="M81.5679 27.976C80.7999 27.976 80.2079 27.752 79.7919 27.304C79.3759 26.856 79.1679 26.312 79.1679 25.672V24.664C79.1679 24.024 79.3759 23.48 79.7919 23.032C80.2079 22.584 80.7999 22.36 81.5679 22.36H83.6319C84.3999 22.36 84.9919 22.584 85.4079 23.032C85.8559 23.48 86.0799 24.024 86.0799 24.664V25.672C86.0799 26.312 85.8559 26.856 85.4079 27.304C84.9919 27.752 84.3999 27.976 83.6319 27.976H81.5679ZM81.3759 55C80.7359 55 80.2719 54.856 79.9839 54.568C79.6959 54.28 79.5519 53.848 79.5519 53.272V33.736C79.5519 33.128 79.6959 32.68 79.9839 32.392C80.2719 32.104 80.7359 31.96 81.3759 31.96H83.8719C84.5119 31.96 84.9759 32.104 85.2639 32.392C85.5519 32.68 85.6959 33.128 85.6959 33.736V53.272C85.6959 53.848 85.5519 54.28 85.2639 54.568C85.0079 54.856 84.5439 55 83.8719 55H81.3759ZM93.5064 55C92.8664 55 92.4024 54.856 92.1144 54.568C91.8584 54.28 91.7304 53.848 91.7304 53.272V24.136C91.7304 23.528 91.8584 23.08 92.1144 22.792C92.4024 22.504 92.8664 22.36 93.5064 22.36H103.106C108.514 22.36 112.642 23.656 115.49 26.248C118.37 28.84 119.81 32.984 119.81 38.68C119.81 49.56 114.242 55 103.106 55H93.5064ZM103.49 50.344C106.882 50.344 109.426 49.464 111.122 47.704C112.85 45.944 113.714 42.936 113.714 38.68C113.714 34.424 112.85 31.432 111.122 29.704C109.426 27.944 106.882 27.064 103.49 27.064H97.8744V50.344H103.49Z"/>
</mask>
<path d="M81.5679 27.976C80.7999 27.976 80.2079 27.752 79.7919 27.304C79.3759 26.856 79.1679 26.312 79.1679 25.672V24.664C79.1679 24.024 79.3759 23.48 79.7919 23.032C80.2079 22.584 80.7999 22.36 81.5679 22.36H83.6319C84.3999 22.36 84.9919 22.584 85.4079 23.032C85.8559 23.48 86.0799 24.024 86.0799 24.664V25.672C86.0799 26.312 85.8559 26.856 85.4079 27.304C84.9919 27.752 84.3999 27.976 83.6319 27.976H81.5679ZM81.3759 55C80.7359 55 80.2719 54.856 79.9839 54.568C79.6959 54.28 79.5519 53.848 79.5519 53.272V33.736C79.5519 33.128 79.6959 32.68 79.9839 32.392C80.2719 32.104 80.7359 31.96 81.3759 31.96H83.8719C84.5119 31.96 84.9759 32.104 85.2639 32.392C85.5519 32.68 85.6959 33.128 85.6959 33.736V53.272C85.6959 53.848 85.5519 54.28 85.2639 54.568C85.0079 54.856 84.5439 55 83.8719 55H81.3759ZM93.5064 55C92.8664 55 92.4024 54.856 92.1144 54.568C91.8584 54.28 91.7304 53.848 91.7304 53.272V24.136C91.7304 23.528 91.8584 23.08 92.1144 22.792C92.4024 22.504 92.8664 22.36 93.5064 22.36H103.106C108.514 22.36 112.642 23.656 115.49 26.248C118.37 28.84 119.81 32.984 119.81 38.68C119.81 49.56 114.242 55 103.106 55H93.5064ZM103.49 50.344C106.882 50.344 109.426 49.464 111.122 47.704C112.85 45.944 113.714 42.936 113.714 38.68C113.714 34.424 112.85 31.432 111.122 29.704C109.426 27.944 106.882 27.064 103.49 27.064H97.8744V50.344H103.49Z" fill="white"/>
<path d="M79.7919 27.304L80.5247 26.6235L80.5247 26.6235L79.7919 27.304ZM79.7919 23.032L80.5247 23.7125L80.5247 23.7125L79.7919 23.032ZM85.4079 23.032L84.6751 23.7125L84.6877 23.726L84.7008 23.7391L85.4079 23.032ZM85.4079 27.304L84.7008 26.5969L84.6877 26.61L84.6751 26.6235L85.4079 27.304ZM79.9839 54.568L80.691 53.8609L80.691 53.8609L79.9839 54.568ZM79.9839 32.392L80.691 33.0991L80.691 33.0991L79.9839 32.392ZM85.2639 54.568L84.5568 53.8609L84.5361 53.8817L84.5165 53.9036L85.2639 54.568ZM81.5679 26.976C81.002 26.976 80.7053 26.8181 80.5247 26.6235L79.0591 27.9844C79.7105 28.6859 80.5979 28.976 81.5679 28.976V26.976ZM80.5247 26.6235C80.2891 26.3698 80.1679 26.0726 80.1679 25.672H78.1679C78.1679 26.5514 78.4627 27.3422 79.0591 27.9845L80.5247 26.6235ZM80.1679 25.672V24.664H78.1679V25.672H80.1679ZM80.1679 24.664C80.1679 24.2634 80.2891 23.9662 80.5247 23.7125L79.0591 22.3515C78.4627 22.9938 78.1679 23.7846 78.1679 24.664H80.1679ZM80.5247 23.7125C80.7053 23.5179 81.002 23.36 81.5679 23.36V21.36C80.5979 21.36 79.7105 21.6501 79.0591 22.3515L80.5247 23.7125ZM81.5679 23.36H83.6319V21.36H81.5679V23.36ZM83.6319 23.36C84.1979 23.36 84.4945 23.5179 84.6751 23.7125L86.1407 22.3515C85.4893 21.6501 84.602 21.36 83.6319 21.36V23.36ZM84.7008 23.7391C84.9592 23.9974 85.0799 24.2862 85.0799 24.664H87.0799C87.0799 23.7618 86.7527 22.9626 86.115 22.3249L84.7008 23.7391ZM85.0799 24.664V25.672H87.0799V24.664H85.0799ZM85.0799 25.672C85.0799 26.0498 84.9592 26.3386 84.7008 26.5969L86.115 28.0111C86.7527 27.3734 87.0799 26.5742 87.0799 25.672H85.0799ZM84.6751 26.6235C84.4945 26.8181 84.1979 26.976 83.6319 26.976V28.976C84.602 28.976 85.4893 28.6859 86.1407 27.9844L84.6751 26.6235ZM83.6319 26.976H81.5679V28.976H83.6319V26.976ZM81.3759 54C80.8542 54 80.7083 53.8782 80.691 53.8609L79.2768 55.2751C79.8355 55.8338 80.6177 56 81.3759 56V54ZM80.691 53.8609C80.6567 53.8266 80.5519 53.6939 80.5519 53.272H78.5519C78.5519 54.0021 78.7352 54.7334 79.2768 55.2751L80.691 53.8609ZM80.5519 53.272V33.736H78.5519V53.272H80.5519ZM80.5519 33.736C80.5519 33.2638 80.6656 33.1245 80.691 33.0991L79.2768 31.6849C78.7262 32.2355 78.5519 32.9922 78.5519 33.736H80.5519ZM80.691 33.0991C80.7083 33.0818 80.8542 32.96 81.3759 32.96V30.96C80.6177 30.96 79.8355 31.1262 79.2768 31.6849L80.691 33.0991ZM81.3759 32.96H83.8719V30.96H81.3759V32.96ZM83.8719 32.96C84.3937 32.96 84.5395 33.0818 84.5568 33.0991L85.971 31.6849C85.4123 31.1262 84.6302 30.96 83.8719 30.96V32.96ZM84.5568 33.0991C84.5822 33.1245 84.6959 33.2638 84.6959 33.736H86.6959C86.6959 32.9922 86.5216 32.2355 85.971 31.6849L84.5568 33.0991ZM84.6959 33.736V53.272H86.6959V33.736H84.6959ZM84.6959 53.272C84.6959 53.6939 84.5912 53.8266 84.5568 53.8609L85.971 55.2751C86.5127 54.7334 86.6959 54.0021 86.6959 53.272H84.6959ZM84.5165 53.9036C84.5374 53.8802 84.5304 53.905 84.4275 53.9369C84.3204 53.9702 84.1429 54 83.8719 54V56C84.6291 56 85.4641 55.848 86.0113 55.2324L84.5165 53.9036ZM83.8719 54H81.3759V56H83.8719V54ZM92.1144 54.568L91.367 55.2324L91.3866 55.2543L91.4073 55.2751L92.1144 54.568ZM92.1144 22.792L91.4073 22.0849L91.3866 22.1057L91.367 22.1276L92.1144 22.792ZM115.49 26.248L114.817 26.9876L114.821 26.9913L115.49 26.248ZM111.122 47.704L110.409 47.0034L110.402 47.0101L111.122 47.704ZM111.122 29.704L110.402 30.3979L110.409 30.4046L110.415 30.4111L111.122 29.704ZM97.8744 27.064V26.064H96.8744V27.064H97.8744ZM97.8744 50.344H96.8744V51.344H97.8744V50.344ZM93.5064 54C92.9847 54 92.8388 53.8782 92.8215 53.8609L91.4073 55.2751C91.966 55.8338 92.7482 56 93.5064 56V54ZM92.8618 53.9036C92.8328 53.8709 92.7304 53.721 92.7304 53.272H90.7304C90.7304 53.975 90.8841 54.6891 91.367 55.2324L92.8618 53.9036ZM92.7304 53.272V24.136H90.7304V53.272H92.7304ZM92.7304 24.136C92.7304 23.6382 92.84 23.4809 92.8618 23.4564L91.367 22.1276C90.8768 22.6791 90.7304 23.4178 90.7304 24.136H92.7304ZM92.8215 23.4991C92.8388 23.4818 92.9847 23.36 93.5064 23.36V21.36C92.7482 21.36 91.966 21.5262 91.4073 22.0849L92.8215 23.4991ZM93.5064 23.36H103.106V21.36H93.5064V23.36ZM103.106 23.36C108.366 23.36 112.216 24.6204 114.817 26.9876L116.164 25.5084C113.069 22.6916 108.663 21.36 103.106 21.36V23.36ZM114.821 26.9913C117.408 29.319 118.81 33.1325 118.81 38.68H120.81C120.81 32.8355 119.333 28.361 116.159 25.5047L114.821 26.9913ZM118.81 38.68C118.81 43.9599 117.461 47.7375 114.936 50.2047C112.406 52.6762 108.526 54 103.106 54V56C108.823 56 113.295 54.6038 116.333 51.6353C119.376 48.6625 120.81 44.2801 120.81 38.68H118.81ZM103.106 54H93.5064V56H103.106V54ZM103.49 51.344C107.046 51.344 109.894 50.4195 111.843 48.3979L110.402 47.0101C108.958 48.5085 106.719 49.344 103.49 49.344V51.344ZM111.836 48.4046C113.842 46.3612 114.714 43.0215 114.714 38.68H112.714C112.714 42.8505 111.859 45.5268 110.409 47.0034L111.836 48.4046ZM114.714 38.68C114.714 34.3411 113.843 31.0107 111.83 28.9969L110.415 30.4111C111.857 31.8533 112.714 34.5069 112.714 38.68H114.714ZM111.843 29.0101C109.894 26.9885 107.046 26.064 103.49 26.064V28.064C106.719 28.064 108.958 28.8995 110.402 30.3979L111.843 29.0101ZM103.49 26.064H97.8744V28.064H103.49V26.064ZM96.8744 27.064V50.344H98.8744V27.064H96.8744ZM97.8744 51.344H103.49V49.344H97.8744V51.344Z" fill="white" mask="url(#path-3-outside-1_15_10)"/>
</svg>
