<svg width="134" height="75" viewBox="0 0 134 75" fill="none" xmlns="http://www.w3.org/2000/svg">
<path d="M4.89706 55C4.25706 55 3.79306 54.856 3.50506 54.568C3.24906 54.28 3.12106 53.848 3.12106 53.272V24.136C3.12106 23.528 3.24906 23.08 3.50506 22.792C3.79306 22.504 4.25706 22.36 4.89706 22.36H17.4251C21.1371 22.36 23.9531 23.224 25.8731 24.952C27.8251 26.68 28.8011 29.24 28.8011 32.632C28.8011 34.872 28.2731 36.792 27.2171 38.392C26.1611 39.96 24.6251 41.144 22.6091 41.944L27.9371 53.752C28.0331 53.944 28.0811 54.12 28.0811 54.28C28.0811 54.76 27.7931 55 27.2171 55H23.2811C22.8651 55 22.5611 54.952 22.3691 54.856C22.1771 54.728 22.0011 54.488 21.8411 54.136L16.9931 42.76H9.26506V53.272C9.26506 53.848 9.12106 54.28 8.83306 54.568C8.57706 54.856 8.11306 55 7.44106 55H4.89706ZM16.1771 38.152C18.4171 38.152 20.0651 37.72 21.1211 36.856C22.1771 35.992 22.7051 34.584 22.7051 32.632C22.7051 30.712 22.2251 29.304 21.2651 28.408C20.3051 27.512 18.8491 27.064 16.8971 27.064H9.26506V38.152H16.1771ZM31.1958 55C30.6518 55 30.3798 54.76 30.3798 54.28C30.3798 54.088 30.4278 53.88 30.5238 53.656L43.1958 23.608C43.3878 23.128 43.5958 22.808 43.8198 22.648C44.0438 22.456 44.3638 22.36 44.7798 22.36H47.4198C47.8678 22.36 48.1878 22.456 48.3798 22.648C48.6038 22.808 48.8118 23.128 49.0038 23.608L61.6758 53.656C61.7718 53.88 61.8198 54.088 61.8198 54.28C61.8198 54.76 61.5478 55 61.0038 55H56.8278C56.4118 55 56.1078 54.952 55.9158 54.856C55.7558 54.728 55.5958 54.488 55.4358 54.136L52.6998 47.416H39.4518L36.7638 54.136C36.6038 54.488 36.4278 54.728 36.2358 54.856C36.0758 54.952 35.7878 55 35.3718 55H31.1958ZM51.1638 42.952L46.0758 30.376L40.9878 42.952H51.1638Z" fill="#7F7F7F"/>
<rect x="66.5" y="5.5" width="65" height="65" rx="7.5" stroke="black" stroke-width="5"/>
<path d="M81.5679 27.976C80.7999 27.976 80.2079 27.752 79.7919 27.304C79.3759 26.856 79.1679 26.312 79.1679 25.672V24.664C79.1679 24.024 79.3759 23.48 79.7919 23.032C80.2079 22.584 80.7999 22.36 81.5679 22.36H83.6319C84.3999 22.36 84.9919 22.584 85.4079 23.032C85.8559 23.48 86.0799 24.024 86.0799 24.664V25.672C86.0799 26.312 85.8559 26.856 85.4079 27.304C84.9919 27.752 84.3999 27.976 83.6319 27.976H81.5679ZM81.3759 55C80.7359 55 80.2719 54.856 79.9839 54.568C79.6959 54.28 79.5519 53.848 79.5519 53.272V33.736C79.5519 33.128 79.6959 32.68 79.9839 32.392C80.2719 32.104 80.7359 31.96 81.3759 31.96H83.8719C84.5119 31.96 84.9759 32.104 85.2639 32.392C85.5519 32.68 85.6959 33.128 85.6959 33.736V53.272C85.6959 53.848 85.5519 54.28 85.2639 54.568C85.0079 54.856 84.5439 55 83.8719 55H81.3759ZM93.5064 55C92.8664 55 92.4024 54.856 92.1144 54.568C91.8584 54.28 91.7304 53.848 91.7304 53.272V24.136C91.7304 23.528 91.8584 23.08 92.1144 22.792C92.4024 22.504 92.8664 22.36 93.5064 22.36H103.106C108.514 22.36 112.642 23.656 115.49 26.248C118.37 28.84 119.81 32.984 119.81 38.68C119.81 49.56 114.242 55 103.106 55H93.5064ZM103.49 50.344C106.882 50.344 109.426 49.464 111.122 47.704C112.85 45.944 113.714 42.936 113.714 38.68C113.714 34.424 112.85 31.432 111.122 29.704C109.426 27.944 106.882 27.064 103.49 27.064H97.8744V50.344H103.49Z" fill="black"/>
</svg>
